<svg width="800" height="800" viewBox="0 0 800 800" fill="none" xmlns="http://www.w3.org/2000/svg">
<rect y="800" width="800" height="800" rx="400" transform="rotate(-90 0 800)" fill="#61636D"/>
<path fill-rule="evenodd" clip-rule="evenodd" d="M205.904 414C195.161 403.257 195.161 385.839 205.904 375.096L380.97 200.03C391.712 189.288 409.13 189.287 419.873 200.03L594.939 375.096C605.682 385.839 605.682 403.257 594.939 414C584.196 424.743 566.779 424.743 556.036 414L427.93 285.895L427.93 608.518C427.93 623.711 415.614 636.027 400.421 636.027C385.229 636.027 372.912 623.711 372.912 608.518L372.912 285.895L244.807 414C234.064 424.743 216.646 424.743 205.904 414Z" fill="#E7E7EB"/>
</svg>
