<svg width="97" height="93" viewBox="0 0 97 93" fill="none" xmlns="http://www.w3.org/2000/svg">
<mask id="mask0_631_23" style="mask-type:alpha" maskUnits="userSpaceOnUse" x="0" y="0" width="97" height="93">
<rect width="96.4444" height="93" fill="#D9D9D9"/>
</mask>
<g mask="url(#mask0_631_23)">
<path d="M-2.75991 0.136293C-12.9642 1.39575 -21.7928 6.84653 -27.5007 15.3944C-30.3956 19.7302 -32.2435 24.9126 -33.0442 30.8795L-33.1674 31.8086L-36.3909 31.8293C-38.5673 31.8293 -40.2098 31.9532 -41.4622 32.2009C-53.8018 34.6166 -63.0822 43.7219 -65.8334 56.0894C-66.2441 57.9476 -66.3057 58.7942 -66.3057 62.3661C-66.3057 66.9703 -66.1003 68.395 -64.8479 72.1734C-63.3902 76.5918 -60.9263 80.556 -57.477 84.0247C-52.8368 88.7115 -46.8826 91.7466 -40.3946 92.717C-38.3825 93.0267 -34.0298 93.0474 4.73418 92.9442C51.1975 92.7996 48.8774 92.8616 53.4971 91.6847C56.2278 91.0033 58.1373 90.2807 60.9912 88.8767C71.1544 83.9008 78.669 74.7749 81.4203 64.0385C86.5327 44.2381 75.4866 23.7564 56.1662 17.1906C51.5671 15.6421 47.5223 15.0847 42.2046 15.2498C38.5089 15.3737 35.6345 15.8486 32.452 16.819C31.6924 17.0668 31.0559 17.2526 31.0148 17.2526C30.9738 17.2526 30.3578 16.3441 29.6187 15.2292C25.7998 9.50999 20.1535 4.92638 13.8092 2.36616C12.1872 1.70546 8.94319 0.796994 6.93108 0.42535C4.79578 0.0124116 -0.624604 -0.132117 -2.75991 0.136293Z" fill="#292C44"/>
</g>
</svg>
