<svg width="77" height="62" viewBox="0 0 77 62" fill="none" xmlns="http://www.w3.org/2000/svg">
<mask id="mask0_631_26" style="mask-type:alpha" maskUnits="userSpaceOnUse" x="0" y="0" width="77" height="62">
<rect width="76.9259" height="62" fill="#D9D9D9"/>
</mask>
<g mask="url(#mask0_631_26)">
<path d="M19.9752 0.0908607C13.1723 0.930502 7.28654 4.56435 3.48133 10.2629C1.55134 13.1535 0.319439 16.6084 -0.214387 20.5864L-0.296514 21.2058L-2.4455 21.2195C-3.89641 21.2195 -4.99144 21.3021 -5.8264 21.4673C-14.0528 23.0778 -20.2397 29.1479 -22.0739 37.3929C-22.3476 38.6318 -22.3887 39.1961 -22.3887 41.5774C-22.3887 44.6469 -22.2518 45.5967 -21.4168 48.1156C-20.445 51.0612 -18.8025 53.704 -16.5029 56.0165C-13.4095 59.141 -9.43998 61.1644 -5.11463 61.8114C-3.77322 62.0178 -0.871402 62.0316 24.9712 61.9628C55.9468 61.8664 54.4001 61.9077 57.4798 61.1231C59.3003 60.6689 60.5733 60.1871 62.4759 59.2511C69.2514 55.9339 74.2611 49.8499 76.0953 42.6923C79.5035 29.4921 72.1395 15.8376 59.2592 11.4604C56.1932 10.4281 53.4967 10.0564 49.9515 10.1666C47.4877 10.2491 45.5714 10.5657 43.4498 11.2127C42.9433 11.3778 42.519 11.5017 42.4916 11.5017C42.4643 11.5017 42.0536 10.8961 41.5609 10.1528C39.0149 6.33999 35.2508 3.28425 31.0212 1.57744C29.9399 1.13697 27.7772 0.531328 26.4358 0.283565C25.0123 0.00827303 21.3987 -0.0880792 19.9752 0.0908607Z" fill="#292C44"/>
</g>
</svg>
