<svg width="78" height="54" viewBox="0 0 78 54" fill="none" xmlns="http://www.w3.org/2000/svg">
<mask id="mask0_633_4" style="mask-type:alpha" maskUnits="userSpaceOnUse" x="0" y="0" width="78" height="54">
<rect y="0.75" width="78" height="53.25" fill="#D9D9D9"/>
</mask>
<g mask="url(#mask0_633_4)">
<path d="M46.8851 0.828039C41.0423 1.54918 35.9872 4.67019 32.719 9.56451C31.0614 12.0471 30.0033 15.0145 29.5449 18.431L29.4743 18.963L27.6286 18.9748C26.3825 18.9748 25.442 19.0458 24.7249 19.1876C17.6595 20.5708 12.3457 25.7843 10.7704 32.8657C10.5353 33.9297 10.5 34.4144 10.5 36.4596C10.5 39.0959 10.6176 39.9116 11.3347 42.0751C12.1694 44.605 13.5801 46.8748 15.5551 48.8609C18.212 51.5445 21.6213 53.2823 25.3362 53.838C26.4883 54.0153 28.9806 54.0271 51.176 53.968C77.7801 53.8853 76.4516 53.9207 79.0967 53.2469C80.6603 52.8568 81.7536 52.443 83.3877 51.6391C89.207 48.79 93.5097 43.5646 95.085 37.4172C98.0123 26.0799 91.6875 14.3524 80.625 10.593C77.9917 9.70637 75.6757 9.38718 72.6309 9.48176C70.5148 9.55269 68.8689 9.82459 67.0468 10.3802C66.6118 10.5221 66.2473 10.6285 66.2238 10.6285C66.2003 10.6285 65.8476 10.1083 65.4244 9.46993C63.2378 6.19523 60.0049 3.57075 56.3722 2.10482C55.4435 1.72651 53.586 1.20634 52.4339 0.993548C51.2113 0.757107 48.1077 0.674353 46.8851 0.828039Z" fill="#C7DEFA"/>
</g>
</svg>
