<svg width="99" height="108" viewBox="0 0 99 108" fill="none" xmlns="http://www.w3.org/2000/svg">
<mask id="mask0_631_37" style="mask-type:alpha" maskUnits="userSpaceOnUse" x="0" y="0" width="99" height="108">
<rect width="99" height="108" fill="#D9D9D9"/>
</mask>
<g mask="url(#mask0_631_37)">
<path d="M73.7951 0.158276C61.9449 1.62088 51.6923 7.95081 45.0639 17.8773C41.702 22.9125 39.5561 28.9307 38.6262 35.8601L38.4831 36.9391L34.7397 36.9631C32.2123 36.9631 30.3049 37.1069 28.8504 37.3946C14.5206 40.2 3.7434 50.7738 0.548396 65.1361C0.07153 67.294 0 68.2771 0 72.4251C0 77.772 0.238433 79.4264 1.69288 83.8142C3.38575 88.9453 6.24695 93.5489 10.2526 97.5771C15.6412 103.02 22.5558 106.544 30.0903 107.671C32.4269 108.031 37.4817 108.055 82.4979 107.935C136.455 107.767 133.761 107.839 139.126 106.473C142.297 105.681 144.514 104.842 147.829 103.212C159.631 97.4332 168.358 86.8353 171.553 74.3673C177.49 51.3733 164.662 27.588 142.225 19.9633C136.884 18.165 132.187 17.5177 126.012 17.7095C121.72 17.8533 118.382 18.4048 114.686 19.5317C113.804 19.8195 113.065 20.0353 113.017 20.0353C112.97 20.0353 112.254 18.9803 111.396 17.6855C106.961 11.0439 100.404 5.72095 93.0366 2.7478C91.153 1.98053 87.3858 0.925542 85.0491 0.493955C82.5694 0.0144138 76.2748 -0.153426 73.7951 0.158276Z" fill="#292C44"/>
</g>
</svg>
