<svg width="131" height="28" viewBox="0 0 131 28" fill="none" xmlns="http://www.w3.org/2000/svg">
<path d="M3.125 17H0.880682V9.72727H3.22443C3.92992 9.72727 4.53362 9.87287 5.03551 10.1641C5.53741 10.4529 5.92211 10.8684 6.18963 11.4105C6.45715 11.9503 6.59091 12.5966 6.59091 13.3494C6.59091 14.107 6.45597 14.7592 6.18608 15.3061C5.91619 15.8506 5.5232 16.2696 5.0071 16.5632C4.491 16.8544 3.86364 17 3.125 17ZM1.76136 16.2188H3.06818C3.66951 16.2188 4.16785 16.1027 4.56321 15.8707C4.95857 15.6387 5.25331 15.3085 5.44744 14.88C5.64157 14.4515 5.73864 13.9413 5.73864 13.3494C5.73864 12.7623 5.64276 12.2569 5.45099 11.8331C5.25923 11.407 4.97277 11.0803 4.59162 10.853C4.21046 10.6233 3.7358 10.5085 3.16761 10.5085H1.76136V16.2188ZM10.2415 17.1136C9.71591 17.1136 9.26255 16.9976 8.88139 16.7656C8.5026 16.5312 8.21023 16.2045 8.00426 15.7855C7.80066 15.3641 7.69886 14.8741 7.69886 14.3153C7.69886 13.7566 7.80066 13.2642 8.00426 12.8381C8.21023 12.4096 8.49669 12.0758 8.86364 11.8366C9.23295 11.5952 9.66383 11.4744 10.1562 11.4744C10.4403 11.4744 10.7209 11.5218 10.9979 11.6165C11.2749 11.7112 11.527 11.8651 11.7543 12.0781C11.9815 12.2888 12.1626 12.5682 12.2976 12.9162C12.4325 13.2642 12.5 13.6927 12.5 14.2017V14.5568H8.29545V13.8324H11.6477C11.6477 13.5246 11.5862 13.25 11.4631 13.0085C11.3423 12.767 11.1695 12.5765 10.9446 12.4368C10.7221 12.2971 10.4593 12.2273 10.1562 12.2273C9.82244 12.2273 9.53362 12.3101 9.28977 12.4759C9.0483 12.6392 8.86245 12.8523 8.73224 13.1151C8.60204 13.3778 8.53693 13.6596 8.53693 13.9602V14.4432C8.53693 14.8551 8.60795 15.2043 8.75 15.4908C8.89441 15.7749 9.09446 15.9915 9.35014 16.1406C9.60582 16.2874 9.90294 16.3608 10.2415 16.3608C10.4616 16.3608 10.6605 16.33 10.8381 16.2685C11.018 16.2045 11.1731 16.1098 11.3033 15.9844C11.4335 15.8565 11.5341 15.6979 11.6051 15.5085L12.4148 15.7358C12.3295 16.0104 12.1863 16.2519 11.9851 16.4602C11.7839 16.6662 11.5353 16.8272 11.2393 16.9432C10.9434 17.0568 10.6108 17.1136 10.2415 17.1136ZM18.0691 11.5455L16.052 17H15.1998L13.1827 11.5455H14.0918L15.5975 15.892H15.6543L17.16 11.5455H18.0691ZM21.2669 17.1136C20.7413 17.1136 20.2879 16.9976 19.9068 16.7656C19.528 16.5312 19.2356 16.2045 19.0297 15.7855C18.8261 15.3641 18.7243 14.8741 18.7243 14.3153C18.7243 13.7566 18.8261 13.2642 19.0297 12.8381C19.2356 12.4096 19.5221 12.0758 19.889 11.8366C20.2583 11.5952 20.6892 11.4744 21.1816 11.4744C21.4657 11.4744 21.7463 11.5218 22.0233 11.6165C22.3002 11.7112 22.5524 11.8651 22.7797 12.0781C23.0069 12.2888 23.188 12.5682 23.323 12.9162C23.4579 13.2642 23.5254 13.6927 23.5254 14.2017V14.5568H19.3208V13.8324H22.6731C22.6731 13.5246 22.6116 13.25 22.4885 13.0085C22.3677 12.767 22.1949 12.5765 21.97 12.4368C21.7475 12.2971 21.4847 12.2273 21.1816 12.2273C20.8478 12.2273 20.559 12.3101 20.3152 12.4759C20.0737 12.6392 19.8878 12.8523 19.7576 13.1151C19.6274 13.3778 19.5623 13.6596 19.5623 13.9602V14.4432C19.5623 14.8551 19.6333 15.2043 19.7754 15.4908C19.9198 15.7749 20.1199 15.9915 20.3755 16.1406C20.6312 16.2874 20.9283 16.3608 21.2669 16.3608C21.487 16.3608 21.6859 16.33 21.8635 16.2685C22.0434 16.2045 22.1984 16.1098 22.3287 15.9844C22.4589 15.8565 22.5595 15.6979 22.6305 15.5085L23.4402 15.7358C23.3549 16.0104 23.2117 16.2519 23.0105 16.4602C22.8092 16.6662 22.5607 16.8272 22.2647 16.9432C21.9688 17.0568 21.6362 17.1136 21.2669 17.1136ZM25.6383 9.72727V17H24.8002V9.72727H25.6383ZM29.3892 17.1136C28.8968 17.1136 28.4647 16.9964 28.093 16.7621C27.7237 16.5277 27.4349 16.1998 27.2266 15.7784C27.0206 15.357 26.9176 14.8646 26.9176 14.3011C26.9176 13.733 27.0206 13.237 27.2266 12.8132C27.4349 12.3894 27.7237 12.0604 28.093 11.826C28.4647 11.5916 28.8968 11.4744 29.3892 11.4744C29.8816 11.4744 30.3125 11.5916 30.6818 11.826C31.0535 12.0604 31.3423 12.3894 31.5483 12.8132C31.7566 13.237 31.8608 13.733 31.8608 14.3011C31.8608 14.8646 31.7566 15.357 31.5483 15.7784C31.3423 16.1998 31.0535 16.5277 30.6818 16.7621C30.3125 16.9964 29.8816 17.1136 29.3892 17.1136ZM29.3892 16.3608C29.7633 16.3608 30.071 16.2649 30.3125 16.0732C30.554 15.8814 30.7327 15.6293 30.8487 15.3168C30.9647 15.0043 31.0227 14.6657 31.0227 14.3011C31.0227 13.9366 30.9647 13.5968 30.8487 13.282C30.7327 12.9671 30.554 12.7126 30.3125 12.5185C30.071 12.3243 29.7633 12.2273 29.3892 12.2273C29.0152 12.2273 28.7074 12.3243 28.4659 12.5185C28.2244 12.7126 28.0457 12.9671 27.9297 13.282C27.8137 13.5968 27.7557 13.9366 27.7557 14.3011C27.7557 14.6657 27.8137 15.0043 27.9297 15.3168C28.0457 15.6293 28.2244 15.8814 28.4659 16.0732C28.7074 16.2649 29.0152 16.3608 29.3892 16.3608ZM33.1401 19.0455V11.5455H33.9498V12.4119H34.0492C34.1107 12.3172 34.196 12.1965 34.3049 12.0497C34.4161 11.9006 34.5748 11.768 34.7807 11.652C34.9891 11.5336 35.2708 11.4744 35.6259 11.4744C36.0852 11.4744 36.49 11.5893 36.8404 11.8189C37.1908 12.0485 37.4642 12.3741 37.6607 12.7955C37.8572 13.2169 37.9554 13.714 37.9554 14.2869C37.9554 14.8646 37.8572 15.3653 37.6607 15.7891C37.4642 16.2105 37.1919 16.5372 36.8439 16.7692C36.4959 16.9988 36.0946 17.1136 35.6401 17.1136C35.2897 17.1136 35.0092 17.0556 34.7985 16.9396C34.5878 16.8213 34.4256 16.6875 34.312 16.5384C34.1983 16.3868 34.1107 16.2614 34.0492 16.1619H33.9782V19.0455H33.1401ZM33.964 14.2727C33.964 14.6847 34.0243 15.0481 34.1451 15.3629C34.2658 15.6754 34.4422 15.9205 34.6742 16.098C34.9062 16.2732 35.1903 16.3608 35.5265 16.3608C35.8768 16.3608 36.1692 16.2685 36.4036 16.0838C36.6403 15.8968 36.8179 15.6458 36.9363 15.331C37.057 15.0137 37.1174 14.661 37.1174 14.2727C37.1174 13.8892 37.0582 13.5436 36.9398 13.2358C36.8238 12.9257 36.6474 12.6806 36.4107 12.5007C36.1763 12.3184 35.8816 12.2273 35.5265 12.2273C35.1855 12.2273 34.8991 12.3137 34.6671 12.4865C34.4351 12.657 34.2599 12.8961 34.1415 13.2038C34.0231 13.5092 33.964 13.8655 33.964 14.2727ZM41.5208 17.1136C40.9952 17.1136 40.5418 16.9976 40.1607 16.7656C39.7819 16.5312 39.4895 16.2045 39.2836 15.7855C39.08 15.3641 38.9782 14.8741 38.9782 14.3153C38.9782 13.7566 39.08 13.2642 39.2836 12.8381C39.4895 12.4096 39.776 12.0758 40.1429 11.8366C40.5123 11.5952 40.9431 11.4744 41.4355 11.4744C41.7196 11.4744 42.0002 11.5218 42.2772 11.6165C42.5542 11.7112 42.8063 11.8651 43.0336 12.0781C43.2608 12.2888 43.4419 12.5682 43.5769 12.9162C43.7118 13.2642 43.7793 13.6927 43.7793 14.2017V14.5568H39.5748V13.8324H42.927C42.927 13.5246 42.8655 13.25 42.7424 13.0085C42.6216 12.767 42.4488 12.5765 42.2239 12.4368C42.0014 12.2971 41.7386 12.2273 41.4355 12.2273C41.1017 12.2273 40.8129 12.3101 40.5691 12.4759C40.3276 12.6392 40.1417 12.8523 40.0115 13.1151C39.8813 13.3778 39.8162 13.6596 39.8162 13.9602V14.4432C39.8162 14.8551 39.8873 15.2043 40.0293 15.4908C40.1737 15.7749 40.3738 15.9915 40.6294 16.1406C40.8851 16.2874 41.1822 16.3608 41.5208 16.3608C41.7409 16.3608 41.9398 16.33 42.1174 16.2685C42.2973 16.2045 42.4524 16.1098 42.5826 15.9844C42.7128 15.8565 42.8134 15.6979 42.8844 15.5085L43.6941 15.7358C43.6088 16.0104 43.4656 16.2519 43.2644 16.4602C43.0632 16.6662 42.8146 16.8272 42.5186 16.9432C42.2227 17.0568 41.8901 17.1136 41.5208 17.1136ZM47.1138 17.1136C46.6593 17.1136 46.258 16.9988 45.91 16.7692C45.562 16.5372 45.2897 16.2105 45.0932 15.7891C44.8967 15.3653 44.7985 14.8646 44.7985 14.2869C44.7985 13.714 44.8967 13.2169 45.0932 12.7955C45.2897 12.3741 45.5632 12.0485 45.9135 11.8189C46.2639 11.5893 46.6687 11.4744 47.128 11.4744C47.4831 11.4744 47.7637 11.5336 47.9696 11.652C48.178 11.768 48.3366 11.9006 48.4455 12.0497C48.5568 12.1965 48.6432 12.3172 48.7047 12.4119H48.7757V9.72727H49.6138V17H48.8042V16.1619H48.7047C48.6432 16.2614 48.5556 16.3868 48.4419 16.5384C48.3283 16.6875 48.1661 16.8213 47.9554 16.9396C47.7447 17.0556 47.4642 17.1136 47.1138 17.1136ZM47.2275 16.3608C47.5636 16.3608 47.8477 16.2732 48.0797 16.098C48.3117 15.9205 48.4881 15.6754 48.6088 15.3629C48.7296 15.0481 48.79 14.6847 48.79 14.2727C48.79 13.8655 48.7308 13.5092 48.6124 13.2038C48.494 12.8961 48.3188 12.657 48.0868 12.4865C47.8548 12.3137 47.5684 12.2273 47.2275 12.2273C46.8723 12.2273 46.5764 12.3184 46.3397 12.5007C46.1053 12.6806 45.9289 12.9257 45.8105 13.2358C45.6945 13.5436 45.6365 13.8892 45.6365 14.2727C45.6365 14.661 45.6957 15.0137 45.8141 15.331C45.9348 15.6458 46.1124 15.8968 46.3468 16.0838C46.5835 16.2685 46.8771 16.3608 47.2275 16.3608ZM54.1912 17V9.72727H55.0293V12.4119H55.1003C55.1619 12.3172 55.2471 12.1965 55.356 12.0497C55.4673 11.9006 55.6259 11.768 55.8319 11.652C56.0402 11.5336 56.3219 11.4744 56.677 11.4744C57.1363 11.4744 57.5411 11.5893 57.8915 11.8189C58.2419 12.0485 58.5153 12.3741 58.7118 12.7955C58.9083 13.2169 59.0066 13.714 59.0066 14.2869C59.0066 14.8646 58.9083 15.3653 58.7118 15.7891C58.5153 16.2105 58.2431 16.5372 57.8951 16.7692C57.5471 16.9988 57.1458 17.1136 56.6912 17.1136C56.3408 17.1136 56.0603 17.0556 55.8496 16.9396C55.6389 16.8213 55.4767 16.6875 55.3631 16.5384C55.2495 16.3868 55.1619 16.2614 55.1003 16.1619H55.0009V17H54.1912ZM55.0151 14.2727C55.0151 14.6847 55.0755 15.0481 55.1962 15.3629C55.3169 15.6754 55.4933 15.9205 55.7253 16.098C55.9573 16.2732 56.2414 16.3608 56.5776 16.3608C56.928 16.3608 57.2203 16.2685 57.4547 16.0838C57.6915 15.8968 57.869 15.6458 57.9874 15.331C58.1081 15.0137 58.1685 14.661 58.1685 14.2727C58.1685 13.8892 58.1093 13.5436 57.9909 13.2358C57.8749 12.9257 57.6986 12.6806 57.4618 12.5007C57.2275 12.3184 56.9327 12.2273 56.5776 12.2273C56.2367 12.2273 55.9502 12.3137 55.7182 12.4865C55.4862 12.657 55.311 12.8961 55.1926 13.2038C55.0743 13.5092 55.0151 13.8655 55.0151 14.2727ZM60.633 19.0455C60.4909 19.0455 60.3643 19.0336 60.253 19.0099C60.1417 18.9886 60.0648 18.9673 60.0222 18.946L60.2353 18.2074C60.4389 18.2595 60.6188 18.2784 60.775 18.2642C60.9313 18.25 61.0698 18.1802 61.1905 18.0547C61.3136 17.9316 61.4261 17.7315 61.5279 17.4545L61.6841 17.0284L59.6671 11.5455H60.5762L62.0819 15.892H62.1387L63.6444 11.5455H64.5534L62.2381 17.7955C62.1339 18.0772 62.0049 18.3104 61.851 18.495C61.6971 18.6821 61.5184 18.8205 61.3148 18.9105C61.1136 19.0005 60.8863 19.0455 60.633 19.0455Z" fill="white"/>
<path d="M69.7585 24V15.2727H73.2017C73.8636 15.2727 74.4276 15.3991 74.8935 15.652C75.3594 15.902 75.7145 16.25 75.9588 16.696C76.206 17.1392 76.3295 17.6506 76.3295 18.2301C76.3295 18.8097 76.2045 19.321 75.9545 19.7642C75.7045 20.2074 75.3423 20.5526 74.8679 20.7997C74.3963 21.0469 73.8253 21.1705 73.1548 21.1705H70.9602V19.6918H72.8565C73.2116 19.6918 73.5043 19.6307 73.7344 19.5085C73.9673 19.3835 74.1406 19.2116 74.2543 18.9929C74.3707 18.7713 74.429 18.517 74.429 18.2301C74.429 17.9403 74.3707 17.6875 74.2543 17.4716C74.1406 17.2528 73.9673 17.0838 73.7344 16.9645C73.5014 16.8423 73.206 16.7812 72.848 16.7812H71.6037V24H69.7585ZM80.3714 24.1278C79.6982 24.1278 79.1186 23.9915 78.6328 23.7188C78.1499 23.4432 77.7777 23.054 77.5163 22.5511C77.255 22.0455 77.1243 21.4474 77.1243 20.7571C77.1243 20.0838 77.255 19.4929 77.5163 18.9844C77.7777 18.4759 78.1456 18.0795 78.62 17.7955C79.0973 17.5114 79.657 17.3693 80.299 17.3693C80.7308 17.3693 81.1328 17.4389 81.505 17.5781C81.88 17.7145 82.2067 17.9205 82.4851 18.196C82.7663 18.4716 82.9851 18.8182 83.1413 19.2358C83.2976 19.6506 83.3757 20.1364 83.3757 20.6932V21.1918H77.8487V20.0668H81.6669C81.6669 19.8054 81.6101 19.5739 81.4964 19.3722C81.3828 19.1705 81.2251 19.0128 81.0234 18.8991C80.8246 18.7827 80.593 18.7244 80.3288 18.7244C80.0533 18.7244 79.8089 18.7884 79.5959 18.9162C79.3857 19.0412 79.2209 19.2102 79.1016 19.4233C78.9822 19.6335 78.9212 19.8679 78.9183 20.1264V21.196C78.9183 21.5199 78.978 21.7997 79.0973 22.0355C79.2195 22.2713 79.3913 22.4531 79.6129 22.581C79.8345 22.7088 80.0973 22.7727 80.4013 22.7727C80.603 22.7727 80.7876 22.7443 80.9553 22.6875C81.1229 22.6307 81.2663 22.5455 81.3857 22.4318C81.505 22.3182 81.5959 22.179 81.6584 22.0142L83.3374 22.125C83.2521 22.5284 83.0774 22.8807 82.8132 23.1818C82.5518 23.4801 82.2138 23.7131 81.799 23.8807C81.3871 24.0455 80.9112 24.1278 80.3714 24.1278ZM86.3757 20.2159V24H84.5604V17.4545H86.2905V18.6094H86.3672C86.5121 18.2287 86.755 17.9276 87.0959 17.706C87.4368 17.4815 87.8501 17.3693 88.3359 17.3693C88.7905 17.3693 89.1868 17.4688 89.5249 17.6676C89.8629 17.8665 90.1257 18.1506 90.3132 18.5199C90.5007 18.8864 90.5945 19.3239 90.5945 19.8324V24H88.7791V20.1562C88.782 19.7557 88.6797 19.4432 88.4723 19.2188C88.2649 18.9915 87.9794 18.8778 87.6158 18.8778C87.3714 18.8778 87.1555 18.9304 86.968 19.0355C86.7834 19.1406 86.6385 19.294 86.5334 19.4957C86.4311 19.6946 86.3786 19.9347 86.3757 20.2159ZM93.8917 24.1236C93.4741 24.1236 93.1019 24.0511 92.7752 23.9062C92.4485 23.7585 92.19 23.5412 91.9996 23.2543C91.8121 22.9645 91.7184 22.6037 91.7184 22.1719C91.7184 21.8082 91.7852 21.5028 91.9187 21.2557C92.0522 21.0085 92.234 20.8097 92.4641 20.6591C92.6942 20.5085 92.9556 20.3949 93.2482 20.3182C93.5437 20.2415 93.8533 20.1875 94.1772 20.1562C94.5579 20.1165 94.8647 20.0795 95.0977 20.0455C95.3306 20.0085 95.4996 19.9545 95.6048 19.8835C95.7099 19.8125 95.7624 19.7074 95.7624 19.5682V19.5426C95.7624 19.2727 95.6772 19.0639 95.5067 18.9162C95.3391 18.7685 95.1005 18.6946 94.7908 18.6946C94.4641 18.6946 94.2042 18.767 94.011 18.9119C93.8178 19.054 93.69 19.233 93.6275 19.4489L91.9485 19.3125C92.0337 18.9148 92.2013 18.571 92.4513 18.2812C92.7013 17.9886 93.0238 17.7642 93.4187 17.608C93.8164 17.4489 94.2766 17.3693 94.7994 17.3693C95.163 17.3693 95.511 17.4119 95.8434 17.4972C96.1786 17.5824 96.4755 17.7145 96.734 17.8935C96.9954 18.0724 97.2013 18.3026 97.3519 18.5838C97.5025 18.8622 97.5778 19.196 97.5778 19.5852V24H95.8562V23.0923H95.805C95.6999 23.2969 95.5593 23.4773 95.3832 23.6335C95.207 23.7869 94.9954 23.9077 94.7482 23.9957C94.5011 24.081 94.2156 24.1236 93.8917 24.1236ZM94.4116 22.8707C94.6786 22.8707 94.9144 22.8182 95.119 22.7131C95.3235 22.6051 95.484 22.4602 95.6005 22.2784C95.717 22.0966 95.7752 21.8906 95.7752 21.6605V20.9659C95.7184 21.0028 95.6403 21.0369 95.5408 21.0682C95.4442 21.0966 95.3349 21.1236 95.2127 21.1491C95.0906 21.1719 94.9684 21.1932 94.8462 21.2131C94.7241 21.2301 94.6133 21.2457 94.5138 21.2599C94.3008 21.2912 94.1147 21.3409 93.9556 21.4091C93.7965 21.4773 93.6729 21.5696 93.5849 21.6861C93.4968 21.7997 93.4528 21.9418 93.4528 22.1122C93.4528 22.3594 93.5423 22.5483 93.7212 22.679C93.9031 22.8068 94.1332 22.8707 94.4116 22.8707ZM101.935 26.5909C101.347 26.5909 100.843 26.5099 100.422 26.348C100.005 26.1889 99.6722 25.9716 99.4251 25.696C99.1779 25.4205 99.0174 25.1108 98.9435 24.767L100.623 24.5412C100.674 24.6719 100.755 24.794 100.865 24.9077C100.976 25.0213 101.123 25.1122 101.304 25.1804C101.489 25.2514 101.713 25.2869 101.978 25.2869C102.373 25.2869 102.698 25.1903 102.953 24.9972C103.212 24.8068 103.341 24.4872 103.341 24.0384V22.8409H103.265C103.185 23.0227 103.066 23.1946 102.907 23.3565C102.748 23.5185 102.543 23.6506 102.293 23.7528C102.043 23.8551 101.745 23.9062 101.398 23.9062C100.907 23.9062 100.459 23.7926 100.056 23.5653C99.6552 23.3352 99.3356 22.9844 99.0969 22.5128C98.8612 22.0384 98.7433 21.4389 98.7433 20.7145C98.7433 19.973 98.864 19.3537 99.1055 18.8565C99.3469 18.3594 99.668 17.9872 100.069 17.7401C100.472 17.4929 100.914 17.3693 101.394 17.3693C101.76 17.3693 102.067 17.4318 102.314 17.5568C102.561 17.679 102.76 17.8324 102.911 18.017C103.064 18.1989 103.182 18.3778 103.265 18.554H103.333V17.4545H105.135V24.0639C105.135 24.6207 104.999 25.0866 104.726 25.4616C104.453 25.8366 104.076 26.1179 103.593 26.3054C103.113 26.4957 102.56 26.5909 101.935 26.5909ZM101.973 22.5426C102.266 22.5426 102.513 22.4702 102.715 22.3253C102.919 22.1776 103.076 21.9673 103.184 21.6946C103.294 21.419 103.35 21.0895 103.35 20.706C103.35 20.3224 103.296 19.9901 103.188 19.7088C103.08 19.4247 102.924 19.2045 102.719 19.0483C102.515 18.892 102.266 18.8139 101.973 18.8139C101.675 18.8139 101.424 18.8949 101.219 19.0568C101.015 19.2159 100.86 19.4375 100.755 19.7216C100.65 20.0057 100.597 20.3338 100.597 20.706C100.597 21.0838 100.65 21.4105 100.755 21.6861C100.863 21.9588 101.017 22.1705 101.219 22.321C101.424 22.4687 101.675 22.5426 101.973 22.5426ZM109.537 24.1278C108.875 24.1278 108.303 23.9872 107.82 23.706C107.34 23.4219 106.969 23.027 106.708 22.5213C106.446 22.0128 106.316 21.4233 106.316 20.7528C106.316 20.0767 106.446 19.4858 106.708 18.9801C106.969 18.4716 107.34 18.0767 107.82 17.7955C108.303 17.5114 108.875 17.3693 109.537 17.3693C110.199 17.3693 110.77 17.5114 111.25 17.7955C111.733 18.0767 112.105 18.4716 112.367 18.9801C112.628 19.4858 112.759 20.0767 112.759 20.7528C112.759 21.4233 112.628 22.0128 112.367 22.5213C112.105 23.027 111.733 23.4219 111.25 23.706C110.77 23.9872 110.199 24.1278 109.537 24.1278ZM109.546 22.7216C109.847 22.7216 110.098 22.6364 110.3 22.4659C110.502 22.2926 110.654 22.0568 110.756 21.7585C110.861 21.4602 110.914 21.1207 110.914 20.7401C110.914 20.3594 110.861 20.0199 110.756 19.7216C110.654 19.4233 110.502 19.1875 110.3 19.0142C110.098 18.8409 109.847 18.7543 109.546 18.7543C109.242 18.7543 108.986 18.8409 108.779 19.0142C108.574 19.1875 108.419 19.4233 108.314 19.7216C108.212 20.0199 108.161 20.3594 108.161 20.7401C108.161 21.1207 108.212 21.4602 108.314 21.7585C108.419 22.0568 108.574 22.2926 108.779 22.4659C108.986 22.6364 109.242 22.7216 109.546 22.7216ZM119.385 19.321L117.723 19.4233C117.695 19.2812 117.634 19.1534 117.54 19.0398C117.446 18.9233 117.323 18.831 117.169 18.7628C117.019 18.6918 116.838 18.6562 116.628 18.6562C116.347 18.6562 116.11 18.7159 115.917 18.8352C115.723 18.9517 115.627 19.108 115.627 19.304C115.627 19.4602 115.689 19.5923 115.814 19.7003C115.939 19.8082 116.154 19.8949 116.458 19.9602L117.642 20.1989C118.279 20.3295 118.753 20.5398 119.066 20.8295C119.378 21.1193 119.534 21.5 119.534 21.9716C119.534 22.4006 119.408 22.777 119.155 23.1009C118.905 23.4247 118.561 23.6776 118.124 23.8594C117.689 24.0384 117.188 24.1278 116.62 24.1278C115.753 24.1278 115.063 23.9474 114.549 23.5866C114.037 23.223 113.738 22.7287 113.65 22.1037L115.435 22.0099C115.489 22.2741 115.62 22.4759 115.827 22.6151C116.034 22.7514 116.3 22.8196 116.624 22.8196C116.942 22.8196 117.198 22.7585 117.391 22.6364C117.587 22.5114 117.686 22.3509 117.689 22.1548C117.686 21.9901 117.617 21.8551 117.48 21.75C117.344 21.642 117.134 21.5597 116.85 21.5028L115.716 21.277C115.077 21.1491 114.601 20.9276 114.289 20.6122C113.979 20.2969 113.824 19.8949 113.824 19.4062C113.824 18.9858 113.938 18.6236 114.165 18.3196C114.395 18.0156 114.718 17.7812 115.132 17.6165C115.55 17.4517 116.039 17.3693 116.598 17.3693C117.425 17.3693 118.076 17.544 118.55 17.8935C119.027 18.2429 119.306 18.7187 119.385 19.321Z" fill="white"/>
<path d="M77.0582 3.27273V12H75.4645L71.6676 6.5071H71.6037V12H69.7585V3.27273H71.3778L75.1449 8.76136H75.2216V3.27273H77.0582ZM78.5487 12V5.45455H80.364V12H78.5487ZM79.4606 4.6108C79.1907 4.6108 78.9592 4.52131 78.766 4.34233C78.5756 4.16051 78.4805 3.94318 78.4805 3.69034C78.4805 3.44034 78.5756 3.22585 78.766 3.04688C78.9592 2.86506 79.1907 2.77415 79.4606 2.77415C79.7305 2.77415 79.9606 2.86506 80.1509 3.04688C80.3441 3.22585 80.4407 3.44034 80.4407 3.69034C80.4407 3.94318 80.3441 4.16051 80.1509 4.34233C79.9606 4.52131 79.7305 4.6108 79.4606 4.6108ZM84.7756 12.1278C84.1051 12.1278 83.5284 11.9858 83.0455 11.7017C82.5653 11.4148 82.196 11.017 81.9375 10.5085C81.6818 10 81.554 9.41477 81.554 8.75284C81.554 8.08239 81.6832 7.49432 81.9418 6.98864C82.2031 6.48011 82.5739 6.08381 83.054 5.79972C83.5341 5.51278 84.1051 5.36932 84.767 5.36932C85.3381 5.36932 85.8381 5.47301 86.267 5.6804C86.696 5.88778 87.0355 6.17898 87.2855 6.55398C87.5355 6.92898 87.6733 7.36932 87.6989 7.875H85.9858C85.9375 7.5483 85.8097 7.28551 85.6023 7.08665C85.3977 6.88494 85.1293 6.78409 84.7969 6.78409C84.5156 6.78409 84.2699 6.8608 84.0597 7.0142C83.8523 7.16477 83.6903 7.38494 83.5739 7.67472C83.4574 7.96449 83.3991 8.31534 83.3991 8.72727C83.3991 9.14489 83.456 9.5 83.5696 9.79261C83.6861 10.0852 83.8494 10.3082 84.0597 10.4616C84.2699 10.6151 84.5156 10.6918 84.7969 10.6918C85.0043 10.6918 85.1903 10.6491 85.3551 10.5639C85.5227 10.4787 85.6605 10.3551 85.7685 10.1932C85.8793 10.0284 85.9517 9.83097 85.9858 9.60085H87.6989C87.6705 10.1009 87.5341 10.5412 87.2898 10.9219C87.0483 11.2997 86.7145 11.5952 86.2884 11.8082C85.8622 12.0213 85.358 12.1278 84.7756 12.1278ZM91.8185 12.1278C91.1566 12.1278 90.5842 11.9872 90.1012 11.706C89.6211 11.4219 89.2504 11.027 88.989 10.5213C88.7276 10.0128 88.5969 9.4233 88.5969 8.75284C88.5969 8.0767 88.7276 7.4858 88.989 6.98011C89.2504 6.47159 89.6211 6.0767 90.1012 5.79545C90.5842 5.51136 91.1566 5.36932 91.8185 5.36932C92.4805 5.36932 93.0515 5.51136 93.5316 5.79545C94.0146 6.0767 94.3867 6.47159 94.6481 6.98011C94.9094 7.4858 95.0401 8.0767 95.0401 8.75284C95.0401 9.4233 94.9094 10.0128 94.6481 10.5213C94.3867 11.027 94.0146 11.4219 93.5316 11.706C93.0515 11.9872 92.4805 12.1278 91.8185 12.1278ZM91.8271 10.7216C92.1282 10.7216 92.3796 10.6364 92.5813 10.4659C92.783 10.2926 92.935 10.0568 93.0373 9.75852C93.1424 9.46023 93.195 9.12074 93.195 8.74006C93.195 8.35938 93.1424 8.01989 93.0373 7.72159C92.935 7.4233 92.783 7.1875 92.5813 7.0142C92.3796 6.84091 92.1282 6.75426 91.8271 6.75426C91.5231 6.75426 91.2674 6.84091 91.06 7.0142C90.8555 7.1875 90.7006 7.4233 90.5955 7.72159C90.4933 8.01989 90.4421 8.35938 90.4421 8.74006C90.4421 9.12074 90.4933 9.46023 90.5955 9.75852C90.7006 10.0568 90.8555 10.2926 91.06 10.4659C91.2674 10.6364 91.5231 10.7216 91.8271 10.7216ZM98.0359 3.27273V12H96.2205V3.27273H98.0359ZM101.357 12.1236C100.939 12.1236 100.567 12.0511 100.24 11.9062C99.9134 11.7585 99.6548 11.5412 99.4645 11.2543C99.277 10.9645 99.1832 10.6037 99.1832 10.1719C99.1832 9.80824 99.25 9.50284 99.3835 9.25568C99.517 9.00852 99.6989 8.80966 99.929 8.65909C100.159 8.50852 100.42 8.39489 100.713 8.31818C101.009 8.24148 101.318 8.1875 101.642 8.15625C102.023 8.11648 102.33 8.07955 102.562 8.04545C102.795 8.00852 102.964 7.95455 103.07 7.88352C103.175 7.8125 103.227 7.70739 103.227 7.56818V7.54261C103.227 7.27273 103.142 7.06392 102.972 6.91619C102.804 6.76847 102.565 6.6946 102.256 6.6946C101.929 6.6946 101.669 6.76705 101.476 6.91193C101.283 7.05398 101.155 7.23295 101.092 7.44886L99.4134 7.3125C99.4986 6.91477 99.6662 6.57102 99.9162 6.28125C100.166 5.98864 100.489 5.7642 100.884 5.60795C101.281 5.44886 101.741 5.36932 102.264 5.36932C102.628 5.36932 102.976 5.41193 103.308 5.49716C103.643 5.58239 103.94 5.71449 104.199 5.89347C104.46 6.07244 104.666 6.30256 104.817 6.58381C104.967 6.86222 105.043 7.19602 105.043 7.58523V12H103.321V11.0923H103.27C103.165 11.2969 103.024 11.4773 102.848 11.6335C102.672 11.7869 102.46 11.9077 102.213 11.9957C101.966 12.081 101.68 12.1236 101.357 12.1236ZM101.876 10.8707C102.143 10.8707 102.379 10.8182 102.584 10.7131C102.788 10.6051 102.949 10.4602 103.065 10.2784C103.182 10.0966 103.24 9.89062 103.24 9.66051V8.96591C103.183 9.00284 103.105 9.03693 103.006 9.06818C102.909 9.09659 102.8 9.12358 102.678 9.14915C102.555 9.17187 102.433 9.19318 102.311 9.21307C102.189 9.23011 102.078 9.24574 101.979 9.25994C101.766 9.29119 101.58 9.34091 101.42 9.40909C101.261 9.47727 101.138 9.5696 101.05 9.68608C100.962 9.79972 100.918 9.94176 100.918 10.1122C100.918 10.3594 101.007 10.5483 101.186 10.679C101.368 10.8068 101.598 10.8707 101.876 10.8707ZM101.68 4.6108L102.584 2.67188H104.263L102.963 4.6108H101.68ZM111.897 7.32102L110.235 7.4233C110.207 7.28125 110.146 7.15341 110.052 7.03977C109.958 6.9233 109.835 6.83097 109.681 6.76278C109.531 6.69176 109.35 6.65625 109.14 6.65625C108.859 6.65625 108.621 6.71591 108.428 6.83523C108.235 6.9517 108.138 7.10795 108.138 7.30398C108.138 7.46023 108.201 7.59233 108.326 7.70028C108.451 7.80824 108.665 7.89489 108.969 7.96023L110.154 8.19886C110.79 8.32955 111.265 8.53977 111.577 8.82955C111.89 9.11932 112.046 9.5 112.046 9.97159C112.046 10.4006 111.92 10.777 111.667 11.1009C111.417 11.4247 111.073 11.6776 110.636 11.8594C110.201 12.0384 109.7 12.1278 109.131 12.1278C108.265 12.1278 107.575 11.9474 107.06 11.5866C106.549 11.223 106.249 10.7287 106.161 10.1037L107.947 10.0099C108.001 10.2741 108.131 10.4759 108.339 10.6151C108.546 10.7514 108.812 10.8196 109.136 10.8196C109.454 10.8196 109.71 10.7585 109.903 10.6364C110.099 10.5114 110.198 10.3509 110.201 10.1548C110.198 9.99006 110.129 9.85511 109.992 9.75C109.856 9.64205 109.646 9.55966 109.362 9.50284L108.228 9.27699C107.589 9.14915 107.113 8.92756 106.8 8.61222C106.491 8.29687 106.336 7.89489 106.336 7.40625C106.336 6.9858 106.45 6.62358 106.677 6.3196C106.907 6.01562 107.229 5.78125 107.644 5.61648C108.062 5.4517 108.55 5.36932 109.11 5.36932C109.937 5.36932 110.587 5.54403 111.062 5.89347C111.539 6.2429 111.817 6.71875 111.897 7.32102Z" fill="white"/>
<path d="M131 14.4578V15.7656C129.914 15.7656 129.153 16.0117 128.717 16.5039C128.288 16.9961 128.073 17.8187 128.073 18.9719V22.3469C128.073 23.3172 127.985 24.1574 127.81 24.8676C127.641 25.5777 127.361 26.1648 126.971 26.6289C126.58 27.093 126.06 27.4375 125.41 27.6625C124.759 27.8875 123.956 28 123 28V25.9328C123.754 25.9328 124.346 25.8027 124.776 25.5426C125.211 25.2895 125.517 24.8992 125.693 24.3719C125.875 23.8445 125.966 23.1695 125.966 22.3469V18.1281C125.966 17.5797 126.031 17.0805 126.161 16.6305C126.298 16.1805 126.545 15.7937 126.902 15.4703C127.26 15.1469 127.767 14.8973 128.424 14.7215C129.088 14.5457 129.946 14.4578 131 14.4578ZM123 1C123.956 1 124.759 1.1125 125.41 1.3375C126.06 1.5625 126.58 1.90703 126.971 2.37109C127.361 2.83516 127.641 3.42227 127.81 4.13242C127.985 4.84258 128.073 5.68281 128.073 6.65313V10.0281C128.073 11.1813 128.288 12.0039 128.717 12.4961C129.153 12.9883 129.914 13.2344 131 13.2344V14.5422C129.946 14.5422 129.088 14.4543 128.424 14.2785C127.767 14.1027 127.26 13.8531 126.902 13.5297C126.545 13.2062 126.298 12.8195 126.161 12.3695C126.031 11.9195 125.966 11.4203 125.966 10.8719V6.65313C125.966 5.83047 125.875 5.15547 125.693 4.62813C125.517 4.09375 125.211 3.7 124.776 3.44688C124.346 3.19375 123.754 3.06719 123 3.06719V1ZM131 13.2344V15.7656H128.698V13.2344H131Z" fill="white"/>
</svg>
